<svg id="Button.Logo.Back" xmlns="http://www.w3.org/2000/svg" width="40.288" height="19.484" viewBox="0 0 40.288 19.484">
  <g id="Logo_Nav" data-name="Logo Nav" transform="translate(-0.462 -0.028)">
    <path id="Path_11229" data-name="Path 11229" d="M3390.1,1828.822a4.209,4.209,0,0,1-3.548-1.364,6.963,6.963,0,0,1-1.134-4.453V1812.7h-3.353v-3.36h6.82v13.089a3.992,3.992,0,0,0,.514,2.317,1.993,1.993,0,0,0,1.717.7h2.9v3.38Z" transform="translate(-3368.18 -1809.31)" fill="#d7d8db"/>
    <path id="Path_11229-2" data-name="Path 11229" d="M3390.1,1828.822a4.209,4.209,0,0,1-3.548-1.364,6.963,6.963,0,0,1-1.134-4.453V1812.7h-3.353v-3.36h6.82v13.089a3.992,3.992,0,0,0,.514,2.317,1.993,1.993,0,0,0,1.717.7h2.9v3.38Z" transform="translate(-3381.603 -1809.31)" fill="#d7d8db"/>
    <path id="Path_11229-3" data-name="Path 11229" d="M3390.1,1828.822a4.209,4.209,0,0,1-3.548-1.364,6.963,6.963,0,0,1-1.134-4.453V1812.7h-3.353v-3.36h6.82v13.089a3.992,3.992,0,0,0,.514,2.317,1.993,1.993,0,0,0,1.717.7h2.9v3.38Z" transform="translate(-3353.268 -1809.31)" fill="#d7d8db"/>
  </g>
</svg>
