<svg id="icon.activity" xmlns="http://www.w3.org/2000/svg" width="16" height="16" viewBox="0 0 16 16">
  <g id="notification-status">
    <path id="Vector" d="M4.009,2A2,2,0,1,1,2,0,2,2,0,0,1,4.009,2Z" transform="translate(10.655 1.336)" fill="none" stroke="#777b81" stroke-linecap="round" stroke-linejoin="round" stroke-width="1.5"/>
    <path id="Vector-2" data-name="Vector" d="M0,0H3.341" transform="translate(4.664 8.667)" fill="none" stroke="#777b81" stroke-linecap="round" stroke-linejoin="round" stroke-width="1.5"/>
    <path id="Vector-3" data-name="Vector" d="M0,0H6.013" transform="translate(4.66 11.333)" fill="none" stroke="#777b81" stroke-linecap="round" stroke-linejoin="round" stroke-width="1.5"/>
    <path id="Vector-4" data-name="Vector" d="M8,0H4.665C1.333,0,0,1.333,0,4.665v4c0,3.332,1.333,4.665,4.665,4.665h4c3.332,0,4.665-1.333,4.665-4.665V5.331" transform="translate(1.336 1.336)" fill="none" stroke="#777b81" stroke-linecap="round" stroke-linejoin="round" stroke-width="1.5"/>
    <path id="Vector-5" data-name="Vector" d="M0,0H16V16H0Z" fill="none" opacity="0"/>
  </g>
</svg>
