<svg xmlns="http://www.w3.org/2000/svg" width="18" height="18" viewBox="0 0 18 18">
  <g id="UserLogo" transform="translate(-775 -709)">
    <rect id="Rectangle_20117" data-name="Rectangle 20117" width="18" height="18" rx="3" transform="translate(775 709)" fill="#303236"/>
    <g id="Group_24196" data-name="Group 24196" transform="translate(-774 624)">
      <path id="Path_12620" data-name="Path 12620" d="M3555.349,1810.4h.871V1809h-1.133a1.5,1.5,0,0,0-1.481,1.481h0v2.488h0c0,.007,0,.014,0,.022a.413.413,0,0,1-.349.408H3553v1.4h.258a.413.413,0,0,1,.349.408c0,.007,0,.014,0,.022h0v2.488h0a1.5,1.5,0,0,0,1.481,1.481h1.133V1817.8h-.871a.37.37,0,0,1-.349-.369c0-.007,0-.015,0-.022h0v-2.353a1,1,0,0,1,0-1.917v-2.353h0c0-.007,0-.015,0-.022A.37.37,0,0,1,3555.349,1810.4Z" transform="translate(-2000 -1720.097)" fill="#9da3aa"/>
      <path id="Path_12621" data-name="Path 12621" d="M3612.824,1859.28l3.425-6.28h-1.879l-3.394,6.28Z" transform="translate(-2055.482 -1762.205)" fill="#9da3aa"/>
      <path id="Path_12622" data-name="Path 12622" d="M3716.872,1810.4H3716V1809h1.133a1.5,1.5,0,0,1,1.481,1.481h0v2.488h0c0,.007,0,.014,0,.022a.413.413,0,0,0,.349.408h.258v1.4h-.258a.413.413,0,0,0-.349.408c0,.007,0,.014,0,.022h0v2.488h0a1.5,1.5,0,0,1-1.481,1.481H3716V1817.8h.872a.37.37,0,0,0,.348-.369c0-.007,0-.015,0-.022h0v-2.353a1,1,0,0,0,0-1.917v-2.353h0c0-.007,0-.015,0-.022A.37.37,0,0,0,3716.872,1810.4Z" transform="translate(-2155.989 -1720.097)" fill="#9da3aa"/>
    </g>
  </g>
</svg>
