<svg xmlns="http://www.w3.org/2000/svg" width="16.102" height="16.102" viewBox="0 0 16.102 16.102">
  <g id="vuesax_linear_calendar" data-name="vuesax/linear/calendar" transform="translate(-492 -188)">
    <g id="calendar" transform="translate(492 188)">
      <path id="Vector" d="M0,0V2.013" transform="translate(5.367 1.342)" fill="none" stroke="#777b81" stroke-linecap="round" stroke-linejoin="round" stroke-width="1.5"/>
      <path id="Vector-2" data-name="Vector" d="M0,0V2.013" transform="translate(10.734 1.342)" fill="none" stroke="#777b81" stroke-linecap="round" stroke-linejoin="round" stroke-width="1.5"/>
      <path id="Vector-3" data-name="Vector" d="M0,0H11.405" transform="translate(2.348 6.098)" fill="none" stroke="#777b81" stroke-linecap="round" stroke-linejoin="round" stroke-width="1.5"/>
      <path id="Vector-4" data-name="Vector" d="M12.076,3.354v5.7a3.009,3.009,0,0,1-3.354,3.354H3.354A3.009,3.009,0,0,1,0,9.057v-5.7A3.009,3.009,0,0,1,3.354,0H8.722A3.009,3.009,0,0,1,12.076,3.354Z" transform="translate(2.013 2.348)" fill="none" stroke="#777b81" stroke-linecap="round" stroke-linejoin="round" stroke-width="1.5"/>
      <path id="Vector-5" data-name="Vector" d="M0,0H16.1V16.1H0Z" fill="none" opacity="0"/>
      <path id="Vector-6" data-name="Vector" d="M.495.5H.5" transform="translate(10.035 8.691)" fill="none" stroke="#777b81" stroke-linecap="round" stroke-linejoin="round" stroke-width="2"/>
      <path id="Vector-7" data-name="Vector" d="M.495.5H.5" transform="translate(10.035 10.704)" fill="none" stroke="#777b81" stroke-linecap="round" stroke-linejoin="round" stroke-width="2"/>
      <path id="Vector-8" data-name="Vector" d="M.495.5H.5" transform="translate(7.553 8.691)" fill="none" stroke="#777b81" stroke-linecap="round" stroke-linejoin="round" stroke-width="2"/>
      <path id="Vector-9" data-name="Vector" d="M.495.5H.5" transform="translate(7.553 10.704)" fill="none" stroke="#777b81" stroke-linecap="round" stroke-linejoin="round" stroke-width="2"/>
      <path id="Vector-10" data-name="Vector" d="M.495.5H.5" transform="translate(5.07 8.691)" fill="none" stroke="#777b81" stroke-linecap="round" stroke-linejoin="round" stroke-width="2"/>
      <path id="Vector-11" data-name="Vector" d="M.495.5H.5" transform="translate(5.07 10.704)" fill="none" stroke="#777b81" stroke-linecap="round" stroke-linejoin="round" stroke-width="2"/>
    </g>
  </g>
</svg>
